<svg width="120" height="100" viewBox="0 0 120 100" fill="none" xmlns="http://www.w3.org/2000/svg">
<path fill-rule="evenodd" clip-rule="evenodd" d="M27.8742 99.789H38.5868V88.9071H27.8742V99.789ZM22.0177 15.8438H94.6266C97.1129 15.8438 99.1525 17.541 99.1525 19.6281V80.5426C99.1525 82.6215 97.1129 84.3269 94.6266 84.3269H22.0177C19.5314 84.3269 17.4918 82.6215 17.4918 80.5426V19.62C17.4918 17.541 19.5216 15.8438 22.0177 15.8438ZM41.1314 33.531H75.4934C76.9988 33.531 78.2226 34.5623 78.2226 35.813V64.3334C78.2226 65.5921 76.9891 66.6153 75.4934 66.6153H41.1314C39.626 66.6153 38.4023 65.584 38.4023 64.3334V35.813C38.4023 34.5623 39.626 33.531 41.1314 33.531ZM119.344 53.289V60.7277H106.33V53.289H119.344ZM119.344 39.0613V46.5H106.33V39.0613H119.344ZM119.344 67.5249V76.4822H106.33V67.5249H119.344ZM119.344 23.3068V32.2641H106.33V23.3068H119.344ZM0 53.289V60.7277H13.0144V53.289H0ZM0 39.0613V46.5H13.0144V39.0613H0ZM0 67.5249V76.4822H13.0144V67.5249H0ZM0 23.3068V32.2641H13.0144V23.3068H0ZM63.7319 0H72.6283V10.8819H63.7319V0ZM46.716 0H55.6124V10.8819H46.716V0ZM80.7575 0H91.4701V10.8819H80.7575V0ZM27.8742 0H38.5868V10.8819H27.8742V0ZM63.7319 99.789H72.6283V88.9071H63.7319V99.789ZM46.716 99.789H55.6124V88.9071H46.716V99.789ZM80.7575 99.789H91.4701V88.9071H80.7575V99.789Z" fill="#6C757D"/>
</svg>
