<svg width="114" height="114" viewBox="0 0 114 114" fill="none" xmlns="http://www.w3.org/2000/svg">
<path d="M0 12.4829V51.4427C0 55.8729 1.74603 60.1207 4.87324 63.248L50.7391 109.114C57.2541 115.629 67.8084 115.629 74.3235 109.114L109.114 74.3235C115.629 67.8085 115.629 57.2541 109.114 50.7391L63.2479 4.87333C60.1207 1.74612 55.8729 9.05402e-05 51.4427 9.05402e-05H12.5089C5.60293 -0.0259696 0 5.57695 0 12.4829ZM29.1873 20.8221C31.399 20.8221 33.5202 21.7007 35.0841 23.2646C36.648 24.8285 37.5266 26.9496 37.5266 29.1613C37.5266 31.373 36.648 33.4942 35.0841 35.0581C33.5202 36.622 31.399 37.5006 29.1873 37.5006C26.9756 37.5006 24.8545 36.622 23.2906 35.0581C21.7267 33.4942 20.8481 31.373 20.8481 29.1613C20.8481 26.9496 21.7267 24.8285 23.2906 23.2646C24.8545 21.7007 26.9756 20.8221 29.1873 20.8221Z" fill="#6C757D"/>
</svg>
